HIERARCHY
ROOT hip
{
	OFFSET 0.000000 0.000000 0.000000 
	CHANNELS 6 Xposition Yposition Zposition Xrotation Zrotation Yrotation
	JOINT abdomen
	{
		OFFSET 0.000000 3.402643 0.000000 
		CHANNELS 3 Xrotation Zrotation Yrotation
		JOINT chest
		{
			OFFSET 0.000000 8.438565 -0.680529 
			CHANNELS 3 Xrotation Zrotation Yrotation
			JOINT neck
			{
				OFFSET 0.000000 10.207942 -0.272212 
				CHANNELS 3 Xrotation Zrotation Yrotation
				JOINT head
				{
					OFFSET 0.000000 3.130431 0.000000 
					CHANNELS 3 Xrotation Zrotation Yrotation
					End Site
					{
						OFFSET 0.000000 3.130435 0.000000 
					}
				}
			}
			JOINT lCollar
			{
				OFFSET 3.470700 6.669187 -0.816635 
				CHANNELS 3 Yrotation Zrotation Xrotation
				JOINT lShldr
				{
					OFFSET 3.198488 0.000000 0.000000 
					CHANNELS 3 Zrotation Yrotation Xrotation
					JOINT lForeArm
					{
						OFFSET 10.139888 0.000000 0.000000 
						CHANNELS 3 Yrotation Zrotation Xrotation
						JOINT lHand
						{
							OFFSET 8.370511 0.000000 0.000000 
							CHANNELS 3 Zrotation Yrotation Xrotation
							End Site
							{
								OFFSET 4.083176 0.000000 0.000000 
							}
						}
					}
				}
			}
			JOINT rCollar
			{
				OFFSET -3.470700 6.669187 -0.816635 
				CHANNELS 3 Yrotation Zrotation Xrotation
				JOINT rShldr
				{
					OFFSET -3.198488 0.000000 0.000000 
					CHANNELS 3 Zrotation Yrotation Xrotation
					JOINT rForeArm
					{
						OFFSET -10.139888 0.000000 0.000000 
						CHANNELS 3 Yrotation Zrotation Xrotation
						JOINT rHand
						{
							OFFSET -8.370511 0.000000 0.000000 
							CHANNELS 3 Zrotation Yrotation Xrotation
							End Site
							{
								OFFSET -4.083176 0.000000 0.000000 
							}
						}
					}
				}
			}
		}
	}
	JOINT lThigh
	{
		OFFSET 5.308129 -1.633274 1.361059 
		CHANNELS 3 Xrotation Zrotation Yrotation
		JOINT lShin
		{
			OFFSET -2.041588 -20.007561 0.000000 
			CHANNELS 3 Xrotation Zrotation Yrotation
			JOINT lFoot
			{
				OFFSET 0.000000 -19.190928 -1.224953 
				CHANNELS 3 Xrotation Yrotation Zrotation
				End Site
				{
					OFFSET 0.000000 -2.449906 4.627600 
				}
			}
		}
	}
	JOINT rThigh
	{
		OFFSET -5.308129 -1.633274 1.361059 
		CHANNELS 3 Xrotation Zrotation Yrotation
		JOINT rShin
		{
			OFFSET 2.041588 -20.007561 0.000000 
			CHANNELS 3 Xrotation Zrotation Yrotation
			JOINT rFoot
			{
				OFFSET 0.000000 -19.190928 -1.224953 
				CHANNELS 3 Xrotation Yrotation Zrotation
				End Site
				{
					OFFSET 0.000000 -2.449906 4.627600 
				}
			}
		}
	}
}
MOTION
Frames: 16
Frame Time: 0.011111
-5.627553 52.020859 4.543724 -0.399232 0.891409 21.713228 27.906897 -5.960367 0.473272 -21.300632 -0.052363 0.696076 -13.450329 -1.324000 3.699128 40.184528 6.054731 10.070623 2.424333 -4.683778 1.783845 -62.049011 -32.506710 23.171700 -50.622684 7.841518 8.408906 8.524705 12.647240 -56.106823 -2.738486 -1.140572 2.095526 70.522430 19.179951 19.981533 56.798988 -8.941032 11.003552 -8.534408 -12.637552 21.654156 -2.472398 1.684974 -5.000844 26.062529 -5.537633 -4.345091 -18.551729 -5.635948 -4.740902 -15.904172 -6.161455 13.742243 44.275291 4.299667 6.562956 -29.262022 -11.464831 -3.763391 
-5.455235 52.078602 4.817990 -0.135219 2.644562 22.757879 27.925982 -7.622174 -0.712760 -20.813074 0.280566 0.579262 -13.061423 -1.317834 3.650375 39.833721 6.004974 9.991794 2.424333 -4.683778 1.783845 -62.018639 -32.477783 23.249046 -50.769180 7.872656 8.459452 8.524705 12.647240 -55.979870 -2.738486 -1.140572 2.095526 70.529083 19.033304 20.030706 56.744797 -8.929136 10.971928 -8.534408 -12.637552 21.849468 -0.942382 -0.258207 -5.249890 25.707924 -5.565478 -4.299926 -18.481531 -6.387942 -5.026411 -15.658211 -8.231079 13.982669 43.219944 4.387691 6.456975 -29.365417 -10.619912 -3.427175 
-5.533125 52.083717 4.784908 -0.098880 1.272504 23.034977 27.844074 -6.392566 0.078583 -21.310692 0.092444 0.642174 -12.837044 -1.424349 3.679100 39.506187 6.168776 10.051980 2.424333 -4.683778 1.783845 -62.039558 -32.536129 23.259329 -50.957428 7.913816 8.540737 8.524705 12.647240 -55.891979 -2.738486 -1.140572 2.095526 70.469749 19.034477 20.048061 56.682232 -8.925855 10.957815 -8.534408 -12.637552 22.054546 -2.034951 1.227595 -5.467600 25.542189 -5.542695 -4.290010 -18.146801 -6.297301 -4.981504 -16.591480 -6.376921 15.057417 42.124733 4.475596 6.336631 -28.786016 -10.886644 -3.347130 
-5.506660 52.065670 4.894976 -0.071606 1.046894 23.592520 27.881851 -6.196856 0.237399 -21.320337 0.034682 0.663732 -12.897844 -1.598104 3.692995 39.382408 6.497880 10.148525 2.424333 -4.683778 1.783845 -61.980995 -32.605206 23.394470 -51.197495 7.961260 8.632523 8.524705 12.647240 -55.755260 -2.738486 -1.140572 2.095526 70.480934 19.092859 19.921480 56.649746 -8.918505 10.936323 -8.534408 -12.637552 22.044783 -2.023390 1.479761 -5.654186 25.340775 -5.552852 -4.254294 -17.923357 -6.643801 -5.084498 -16.941216 -6.054622 15.458864 41.079151 4.553727 6.196486 -28.047642 -10.318526 -2.870372 
-5.473880 52.064770 5.002036 0.026729 1.042683 24.189989 28.018040 -6.240380 0.327175 -21.369041 -0.022255 0.695085 -13.107421 -1.755693 3.655048 39.434853 6.725892 10.087055 2.424333 -4.683778 1.783845 -61.944534 -32.800991 23.515869 -51.334232 7.993384 8.692053 8.524705 12.647240 -55.716198 -2.738486 -1.140572 2.095526 70.521782 19.150660 19.717857 56.618542 -8.916500 10.924414 -8.534408 -12.637552 21.966656 -2.194368 1.463246 -5.810905 25.619698 -5.556692 -4.290205 -17.911877 -7.073510 -5.229713 -17.248505 -6.025223 15.967171 39.941681 4.657721 6.056387 -27.489817 -9.473976 -2.323366 
-5.441402 52.074390 5.108494 0.186248 1.056664 24.769367 28.021288 -6.326350 0.328632 -21.388584 -0.011904 0.704498 -13.167132 -1.748750 3.627888 39.465603 6.652661 10.016253 2.424333 -4.683778 1.783845 -61.956688 -32.927803 23.438005 -51.438679 8.013660 8.733825 8.524705 12.647240 -55.706432 -2.738486 -1.140572 2.095526 70.522430 19.179951 19.610439 56.587334 -8.914477 10.912514 -8.534408 -12.637552 21.888529 -2.205650 1.434742 -5.958425 25.501711 -5.546716 -4.277629 -17.728086 -7.447190 -5.371291 -17.620577 -5.986249 16.697338 38.824299 4.729785 5.943924 -26.855812 -8.620688 -1.813251 
-5.406518 52.088825 5.230591 0.326691 1.046666 25.319006 27.966724 -6.395689 0.295862 -21.359419 0.056051 0.702048 -13.205863 -1.772339 3.646446 39.523865 6.633615 10.054835 2.424333 -4.683778 1.783845 -61.986904 -32.946972 23.419252 -51.617424 8.054363 8.813454 8.524705 12.647240 -55.599010 -2.738486 -1.140572 2.095526 70.463318 19.190887 19.608265 56.522198 -8.900215 10.880868 -8.534408 -12.637552 22.025249 -2.090440 1.440424 -6.102891 25.228525 -5.562181 -4.256273 -17.476061 -7.794472 -5.467873 -17.954802 -5.957025 17.399801 37.676525 4.808311 5.801733 -25.918713 -7.737036 -1.189823 
-5.365016 52.110779 5.351484 0.474512 1.127127 25.899038 28.002584 -6.506619 0.253654 -21.349823 0.143766 0.698931 -13.191850 -2.038679 3.627133 39.512825 6.813365 9.982679 2.424333 -4.683778 1.783845 -62.096622 -32.955395 23.480711 -51.806019 8.091675 8.885391 8.524705 12.647240 -55.432991 -2.738486 -1.140572 2.095526 70.315208 19.203573 19.641886 56.469276 -8.893328 10.858965 -8.534408 -12.637552 22.337751 -1.899064 1.344835 -6.344365 24.913076 -5.596462 -4.176945 -17.255678 -8.130144 -5.547807 -18.312323 -6.074533 17.971090 36.513130 4.928676 5.658885 -24.898096 -6.607486 -0.511561 
-5.323515 52.133633 5.467264 0.594700 1.188565 26.459204 28.045694 -6.595865 0.257625 -21.359636 0.173862 0.717378 -13.149298 -2.218567 3.555260 39.436062 6.852834 9.796279 2.424333 -4.683778 1.783845 -62.206337 -32.963810 23.434746 -51.983730 8.124988 8.959515 8.524705 12.647240 -55.306042 -2.738486 -1.140572 2.095526 70.216103 19.195751 19.608957 56.481487 -8.900809 10.867151 -8.534408 -12.637552 22.464703 -1.690976 1.274493 -6.605924 24.582731 -5.595381 -4.146815 -17.031031 -8.353043 -5.640363 -18.600328 -6.103692 18.808744 35.372902 4.997170 5.521541 -24.170534 -5.672888 0.017154 
-5.281414 52.151978 5.580339 0.661804 1.109044 26.948389 28.070030 -6.528913 0.343197 -21.320496 0.134677 0.728625 -13.167484 -2.165260 3.564496 39.407356 6.767125 9.799924 2.424333 -4.683778 1.783845 -62.288246 -33.089771 23.266357 -52.089520 8.149284 8.998506 8.524705 12.647240 -55.227917 -2.738486 -1.140572 2.095526 70.196541 19.205900 19.539871 56.512699 -8.902905 10.879025 -8.534408 -12.637552 22.347515 -1.560747 1.346435 -6.856216 24.270214 -5.605172 -4.110962 -16.821947 -8.612363 -5.710273 -18.804592 -5.888719 19.924391 34.211777 5.060225 5.388823 -23.676352 -4.914797 0.394911 
-5.232394 52.161606 5.688001 0.710470 1.007218 27.505058 28.099798 -6.354946 0.428610 -21.252007 0.065819 0.740861 -13.144895 -2.050915 3.586262 39.184532 6.602354 9.836151 2.424333 -4.683778 1.783845 -62.371040 -33.264538 23.160997 -52.131496 8.158104 9.019843 8.524705 12.647240 -55.061897 -2.738486 -1.140572 2.095526 70.138702 19.275406 19.488876 56.512699 -8.902905 10.879025 -8.534408 -12.637552 22.415873 -1.429976 1.469582 -7.045453 23.974031 -5.635228 -4.050704 -16.489540 -8.946304 -5.763123 -18.974581 -5.772300 20.590593 33.056553 5.145561 5.241974 -23.020651 -3.978026 0.870890 
-5.186382 52.173328 5.804383 0.801367 0.988313 28.102909 28.145695 -6.297681 0.463282 -21.212893 0.036033 0.741878 -13.116101 -2.055132 3.574826 39.011368 6.552888 9.771246 2.424333 -4.683778 1.783845 -62.441631 -33.312492 23.197462 -52.277992 8.185386 9.082519 8.524705 12.647240 -54.876350 -2.738486 -1.140572 2.095526 69.992477 19.375933 19.512728 56.469276 -8.893328 10.858965 -8.534408 -12.637552 22.708841 -1.273772 1.497822 -7.230558 23.680691 -5.645028 -4.026212 -16.162739 -9.279799 -5.836929 -19.171719 -5.752882 21.308104 31.979345 5.217248 5.127268 -22.471663 -3.261860 1.236799 
-5.152701 52.194981 5.927982 0.959956 1.028095 28.674088 28.160738 -6.362710 0.391623 -21.203299 0.123426 0.729222 -13.206097 -2.215192 3.599522 39.091774 6.647397 9.815303 2.424333 -4.683778 1.783845 -62.551208 -33.311127 23.122185 -52.435410 8.215397 9.145044 8.524705 12.647240 -54.847054 -2.738486 -1.140572 2.095526 69.787102 19.487350 19.680885 56.385136 -8.884212 10.823732 -8.534408 -12.637552 23.040876 -1.158005 1.440280 -7.426957 23.407839 -5.654784 -3.984008 -15.904299 -9.606504 -5.932935 -19.495138 -5.743250 22.413881 30.942707 5.281020 4.964429 -22.132362 -2.765561 1.464211 
-5.119921 52.222050 6.047974 1.141598 1.029681 29.304255 28.138231 -6.367345 0.164520 -21.203592 0.258133 0.666146 -13.095080 -2.267105 3.702240 38.968109 6.555851 9.976263 2.424333 -4.683778 1.783845 -62.729618 -33.260052 22.814341 -52.519585 8.231780 9.176926 8.524705 12.647240 -54.905651 -2.738486 -1.140572 2.095526 69.521912 19.580353 20.012854 56.321262 -8.875031 10.801774 -8.534408 -12.637552 23.314310 -1.099465 1.430428 -7.568515 23.166466 -5.653708 -3.972449 -15.634981 -10.028503 -6.036041 -19.826712 -5.772609 23.299131 29.964094 5.334376 4.842218 -21.834908 -2.227417 1.713003 
-5.086541 52.243999 6.169468 1.168353 0.851329 29.926611 28.119396 -6.097939 0.093612 -21.262161 0.237630 0.617747 -12.874091 -2.158848 3.789134 38.796169 6.382355 10.133610 2.424333 -4.683778 1.783845 -62.827801 -33.180676 22.533728 -52.550846 8.236479 9.187675 8.524705 12.647240 -54.954475 -2.738486 -1.140572 2.095526 69.393723 19.602333 20.161085 56.248055 -8.867790 10.766767 -8.534408 -12.637552 23.343605 -1.070826 1.684282 -7.616977 22.933685 -5.659768 -3.952482 -15.293009 -10.475476 -6.140967 -20.036860 -5.566700 23.980909 29.043850 5.383050 4.733232 -21.534805 -1.961855 1.835277 
-5.048047 52.255436 6.297879 1.052060 0.581845 30.494917 28.147627 -5.679743 0.303915 -21.232561 0.081153 0.623107 -12.852294 -2.139909 3.833198 38.824413 6.354154 10.240975 2.424333 -4.683778 1.783845 -62.917976 -33.208836 22.448162 -52.550846 8.236479 9.187675 8.524705 12.647240 -54.876350 -2.738486 -1.140572 2.095526 69.344879 19.632565 20.090900 56.237118 -8.865637 10.766654 -8.534408 -12.637552 23.372906 -0.994249 2.076054 -7.730116 22.730389 -5.673613 -3.897691 -15.049466 -10.850432 -6.226978 -20.115776 -5.185647 24.574759 28.224112 5.422156 4.601151 -21.328823 -1.977860 1.861781 
